# xmcd
#
# Track frame offsets:
#	150
#	11168
#	20734
#	29035
#	38834
#	50369
#	63236
#	75020
#	85922
#	95698
#
# Disc length: 1398 seconds
#
# Revision: 0
# Processed by: cddbd v1.5.2PL0 Copyright (c) Steve Scherf et al.
# Submitted via: audiograbber 1.82.01
#
DISCID=7505740a
DTITLE=George Jones - I'll Share My World With You
DYEAR=1969
DGENRE=Country
TTITLE0=I'll Share My World With You
TTITLE1=I Don't Have Sense Enough
TTITLE2=Do What You Think's Best
TTITLE3=Heartache And Hangovers
TTITLE4=Milwaukee, Here I Come
TTITLE5=When The Grass Grows Over Me
TTITLE6=You've Become My Everything
TTITLE7=When The Wife Runs Off
TTITLE8=Our Happy Home
TTITLE9=The Race Is On
EXTD=
EXTT0=
EXTT1=
EXTT2=
EXTT3=
EXTT4=
EXTT5=
EXTT6=
EXTT7=
EXTT8=
EXTT9=
PLAYORDER=
